<svg xmlns="http://www.w3.org/2000/svg" version="1.1" xmlns:xlink="http://www.w3.org/1999/xlink" xmlns:svgjs="http://svgjs.dev/svgjs" width="1500" height="937" viewBox="0 0 1500 937"><g id="Icon" transform="matrix(1,0,0,1,0,0)"><svg viewBox="0 0 512 320" data-background-color="#000000" preserveAspectRatio="xMidYMid meet" height="937" width="1500" xmlns="http://www.w3.org/2000/svg" xmlns:xlink="http://www.w3.org/1999/xlink"><g id="tight-bounds" transform="matrix(1,0,0,1,0,0)"><svg viewBox="0 0 512 320" height="320" width="512"><rect width="512" height="320" fill="url(#8d39d407-4cd2-404c-8c22-3d23431002c1)" mask="url(#c8f0b718-867d-4e97-a942-9de906d30f90)" data-fill-palette-color="tertiary"></rect><g><svg></svg></g><g><svg viewBox="0 0 512 320" height="320" width="512"><g><path d="M96 160c0-88.366 71.634-160 160-160 88.366 0 160 71.634 160 160 0 88.366-71.634 160-160 160-88.366 0-160-71.634-160-160zM256 303.223c79.1 0 143.223-64.123 143.223-143.223 0-79.1-64.123-143.223-143.223-143.223-79.1 0-143.223 64.123-143.223 143.223 0 79.1 64.123 143.223 143.223 143.223z" fill="url(#8d39d407-4cd2-404c-8c22-3d23431002c1)" fill-rule="nonzero" stroke="none" stroke-width="1" stroke-linecap="butt" stroke-linejoin="miter" stroke-miterlimit="10" stroke-dasharray="" stroke-dashoffset="0" font-family="none" font-weight="none" font-size="none" text-anchor="none" style="mix-blend-mode: normal" data-fill-palette-color="tertiary"></path></g><g transform="matrix(1,0,0,1,128,113.49027635619242)"><svg viewBox="0 0 255.99999999999997 93.01944728761514" height="93.01944728761514" width="255.99999999999997"><g><svg viewBox="0 0 255.99999999999997 93.01944728761514" height="93.01944728761514" width="255.99999999999997"><g><svg viewBox="0 0 255.99999999999997 93.01944728761514" height="93.01944728761514" width="255.99999999999997"><g id="textblocktransform"><svg viewBox="0 0 255.99999999999997 93.01944728761514" height="93.01944728761514" width="255.99999999999997" id="textblock"><g><svg viewBox="0 0 255.99999999999997 93.01944728761514" height="93.01944728761514" width="255.99999999999997"><g transform="matrix(1,0,0,1,0,0)"><svg width="255.99999999999997" viewBox="0.95 -34.9 97.7 35.5" height="93.01944728761514" data-palette-color="url(#55724dc4-03ff-4c6c-959b-50d7a4311464)"></svg></g></svg></g></svg></g></svg></g><g></g></svg></g></svg></g></svg></g><defs></defs><mask id="219636f4-3607-4507-8596-ca74f2c12fc5"><g id="SvgjsG2154"><svg viewBox="0 0 512 320" height="320" width="512"><g><svg></svg></g><g><svg viewBox="0 0 512 320" height="320" width="512"><g><path d="M96 160c0-88.366 71.634-160 160-160 88.366 0 160 71.634 160 160 0 88.366-71.634 160-160 160-88.366 0-160-71.634-160-160zM256 303.223c79.1 0 143.223-64.123 143.223-143.223 0-79.1-64.123-143.223-143.223-143.223-79.1 0-143.223 64.123-143.223 143.223 0 79.1 64.123 143.223 143.223 143.223z" fill="black" fill-rule="nonzero" stroke="none" stroke-width="1" stroke-linecap="butt" stroke-linejoin="miter" stroke-miterlimit="10" stroke-dasharray="" stroke-dashoffset="0" font-family="none" font-weight="none" font-size="none" text-anchor="none" style="mix-blend-mode: normal"></path></g><g transform="matrix(1,0,0,1,128,113.49027635619242)"><svg viewBox="0 0 255.99999999999997 93.01944728761514" height="93.01944728761514" width="255.99999999999997"><g><svg viewBox="0 0 255.99999999999997 93.01944728761514" height="93.01944728761514" width="255.99999999999997"><g><svg viewBox="0 0 255.99999999999997 93.01944728761514" height="93.01944728761514" width="255.99999999999997"><g id="SvgjsG2153"><svg viewBox="0 0 255.99999999999997 93.01944728761514" height="93.01944728761514" width="255.99999999999997" id="SvgjsSvg2152"><g><svg viewBox="0 0 255.99999999999997 93.01944728761514" height="93.01944728761514" width="255.99999999999997"><g transform="matrix(1,0,0,1,0,0)"><svg width="255.99999999999997" viewBox="0.95 -34.9 97.7 35.5" height="93.01944728761514" data-palette-color="url(#55724dc4-03ff-4c6c-959b-50d7a4311464)"><path d="M14.45 0.6Q8.35 0.6 4.65-1.4 0.95-3.4 0.95-7.75L0.95-7.75Q0.95-9.5 1.35-10.7L1.35-10.7 6.05-10.7Q5.65-9.35 5.65-8.55L5.65-8.55Q5.65-6.05 7.88-4.75 10.1-3.45 13.9-3.45L13.9-3.45Q18.85-3.45 21.75-5.1 24.65-6.75 24.65-9.75L24.65-9.75Q24.65-11.4 23.5-12.5 22.35-13.6 20.63-14.28 18.9-14.95 15.95-15.8L15.95-15.8Q12.35-16.8 10.08-17.75 7.8-18.7 6.23-20.45 4.65-22.2 4.65-25L4.65-25Q4.65-28.25 6.63-30.48 8.6-32.7 11.83-33.8 15.05-34.9 18.75-34.9L18.75-34.9Q24.5-34.9 27.93-32.98 31.35-31.05 31.35-27.1L31.35-27.1Q31.35-25.9 31.1-24.65L31.1-24.65 26.45-24.65Q26.65-25.4 26.65-26.2L26.65-26.2Q26.65-28.4 24.63-29.63 22.6-30.85 19.2-30.85L19.2-30.85Q15-30.85 12.3-29.5 9.6-28.15 9.6-25.55L9.6-25.55Q9.6-24 10.73-22.95 11.85-21.9 13.55-21.25 15.25-20.6 18.15-19.8L18.15-19.8Q21.85-18.75 24.13-17.8 26.4-16.85 28.03-15.08 29.65-13.3 29.65-10.45L29.65-10.45Q29.65-6.65 27.53-4.17 25.4-1.7 21.95-0.55 18.5 0.6 14.45 0.6L14.45 0.6ZM43.2 0L48.5-30.15 36.7-30.15 37.45-34.3 65.8-34.3 65.05-30.15 53.25-30.15 47.95 0 43.2 0ZM61.15 0L77.8-18.1 68.35-34.3 73.9-34.3 81.2-21.65 81.45-21.65 92.8-34.3 98.65-34.3 83.5-17.85 93.95 0 88.4 0 80.3-14.25 80-14.25 66.95 0 61.15 0Z" opacity="1" transform="matrix(1,0,0,1,0,0)" fill="white" class="wordmark-text-0" id="SvgjsPath2151"></path></svg></g></svg></g></svg></g></svg></g><g></g></svg></g></svg></g></svg></g><defs><mask></mask></defs></svg><rect width="512" height="320" fill="black" stroke="none" visibility="hidden"></rect></g></mask><linearGradient x1="0" x2="1" y1="0.548" y2="0.55" id="55724dc4-03ff-4c6c-959b-50d7a4311464"><stop stop-color="#ff6cab" offset="0"></stop><stop stop-color="#7366ff" offset="1"></stop></linearGradient><rect width="512" height="320" fill="url(#55724dc4-03ff-4c6c-959b-50d7a4311464)" mask="url(#219636f4-3607-4507-8596-ca74f2c12fc5)" data-fill-palette-color="primary"></rect><mask id="c8f0b718-867d-4e97-a942-9de906d30f90"><g id="SvgjsG2177"><svg viewBox="0 0 512 320" height="320" width="512"><g><svg></svg></g><g><svg viewBox="0 0 512 320" height="320" width="512"><g><path d="M96 160c0-88.366 71.634-160 160-160 88.366 0 160 71.634 160 160 0 88.366-71.634 160-160 160-88.366 0-160-71.634-160-160zM256 303.223c79.1 0 143.223-64.123 143.223-143.223 0-79.1-64.123-143.223-143.223-143.223-79.1 0-143.223 64.123-143.223 143.223 0 79.1 64.123 143.223 143.223 143.223z" fill="white" fill-rule="nonzero" stroke="none" stroke-width="1" stroke-linecap="butt" stroke-linejoin="miter" stroke-miterlimit="10" stroke-dasharray="" stroke-dashoffset="0" font-family="none" font-weight="none" font-size="none" text-anchor="none" style="mix-blend-mode: normal"></path></g><g transform="matrix(1,0,0,1,128,113.49027635619242)"><svg viewBox="0 0 255.99999999999997 93.01944728761514" height="93.01944728761514" width="255.99999999999997"><g><svg viewBox="0 0 255.99999999999997 93.01944728761514" height="93.01944728761514" width="255.99999999999997"><g><svg viewBox="0 0 255.99999999999997 93.01944728761514" height="93.01944728761514" width="255.99999999999997"><g id="SvgjsG2176"><svg viewBox="0 0 255.99999999999997 93.01944728761514" height="93.01944728761514" width="255.99999999999997" id="SvgjsSvg2175"><g><svg viewBox="0 0 255.99999999999997 93.01944728761514" height="93.01944728761514" width="255.99999999999997"><g transform="matrix(1,0,0,1,0,0)"><svg width="255.99999999999997" viewBox="0.95 -34.9 97.7 35.5" height="93.01944728761514" data-palette-color="url(#55724dc4-03ff-4c6c-959b-50d7a4311464)"></svg></g></svg></g></svg></g></svg></g><g></g></svg></g></svg></g></svg></g><defs><mask></mask></defs><mask><g id="SvgjsG2174"><svg viewBox="0 0 512 320" height="320" width="512"><g><svg></svg></g><g><svg viewBox="0 0 512 320" height="320" width="512"><g><path d="M96 160c0-88.366 71.634-160 160-160 88.366 0 160 71.634 160 160 0 88.366-71.634 160-160 160-88.366 0-160-71.634-160-160zM256 303.223c79.1 0 143.223-64.123 143.223-143.223 0-79.1-64.123-143.223-143.223-143.223-79.1 0-143.223 64.123-143.223 143.223 0 79.1 64.123 143.223 143.223 143.223z" fill="black" fill-rule="nonzero" stroke="none" stroke-width="1" stroke-linecap="butt" stroke-linejoin="miter" stroke-miterlimit="10" stroke-dasharray="" stroke-dashoffset="0" font-family="none" font-weight="none" font-size="none" text-anchor="none" style="mix-blend-mode: normal"></path></g><g transform="matrix(1,0,0,1,128,113.49027635619242)"><svg viewBox="0 0 255.99999999999997 93.01944728761514" height="93.01944728761514" width="255.99999999999997"><g><svg viewBox="0 0 255.99999999999997 93.01944728761514" height="93.01944728761514" width="255.99999999999997"><g><svg viewBox="0 0 255.99999999999997 93.01944728761514" height="93.01944728761514" width="255.99999999999997"><g id="SvgjsG2173"><svg viewBox="0 0 255.99999999999997 93.01944728761514" height="93.01944728761514" width="255.99999999999997" id="SvgjsSvg2172"><g><svg viewBox="0 0 255.99999999999997 93.01944728761514" height="93.01944728761514" width="255.99999999999997"><g transform="matrix(1,0,0,1,0,0)"><svg width="255.99999999999997" viewBox="0.95 -34.9 97.7 35.5" height="93.01944728761514" data-palette-color="url(#55724dc4-03ff-4c6c-959b-50d7a4311464)"><path d="M14.45 0.6Q8.35 0.6 4.65-1.4 0.95-3.4 0.95-7.75L0.95-7.75Q0.95-9.5 1.35-10.7L1.35-10.7 6.05-10.7Q5.65-9.35 5.65-8.55L5.65-8.55Q5.65-6.05 7.88-4.75 10.1-3.45 13.9-3.45L13.9-3.45Q18.85-3.45 21.75-5.1 24.65-6.75 24.65-9.75L24.65-9.75Q24.65-11.4 23.5-12.5 22.35-13.6 20.63-14.28 18.9-14.95 15.95-15.8L15.95-15.8Q12.35-16.8 10.08-17.75 7.8-18.7 6.23-20.45 4.65-22.2 4.65-25L4.65-25Q4.65-28.25 6.63-30.48 8.6-32.7 11.83-33.8 15.05-34.9 18.75-34.9L18.75-34.9Q24.5-34.9 27.93-32.98 31.35-31.05 31.35-27.1L31.35-27.1Q31.35-25.9 31.1-24.65L31.1-24.65 26.45-24.65Q26.65-25.4 26.65-26.2L26.65-26.2Q26.65-28.4 24.63-29.63 22.6-30.85 19.2-30.85L19.2-30.85Q15-30.85 12.3-29.5 9.6-28.15 9.6-25.55L9.6-25.55Q9.6-24 10.73-22.95 11.85-21.9 13.55-21.25 15.25-20.6 18.15-19.8L18.15-19.8Q21.85-18.75 24.13-17.8 26.4-16.85 28.03-15.08 29.65-13.3 29.65-10.45L29.65-10.45Q29.65-6.65 27.53-4.17 25.4-1.7 21.95-0.55 18.5 0.6 14.45 0.6L14.45 0.6ZM43.2 0L48.5-30.15 36.7-30.15 37.45-34.3 65.8-34.3 65.05-30.15 53.25-30.15 47.95 0 43.2 0ZM61.15 0L77.8-18.1 68.35-34.3 73.9-34.3 81.2-21.65 81.45-21.65 92.8-34.3 98.65-34.3 83.5-17.85 93.95 0 88.4 0 80.3-14.25 80-14.25 66.95 0 61.15 0Z" opacity="1" transform="matrix(1,0,0,1,0,0)" fill="black" class="wordmark-text-0" id="SvgjsPath2171"></path></svg></g></svg></g></svg></g></svg></g><g></g></svg></g></svg></g></svg></g><defs><mask></mask></defs></svg><rect width="512" height="320" fill="black" stroke="none" visibility="hidden"></rect></g></mask></svg><rect width="512" height="320" fill="black" stroke="none" visibility="hidden"></rect></g></mask><linearGradient x1="0" x2="1" y1="0.548" y2="0.55" id="8d39d407-4cd2-404c-8c22-3d23431002c1"><stop stop-color="#ff6cab" offset="0"></stop><stop stop-color="#7366ff" offset="1"></stop></linearGradient></svg><rect width="512" height="320" fill="none" stroke="none" visibility="hidden"></rect></g></svg></g></svg>